<svg width="300" height="300" viewBox="0 0 300 300" fill="none" xmlns="http://www.w3.org/2000/svg">
    <rect width="300" height="300" fill="#E9E9E9"/>
    <line x1="0.646447" y1="299.646" x2="299.646" y2="0.646453" stroke="#878787" stroke-dasharray="8 8"/>
    <line x1="0.353553" y1="0.646447" x2="299.354" y2="299.646" stroke="#878787" stroke-dasharray="8 8"/>
    <rect x="105" y="127" width="89" height="58" fill="#E9E9E9"/>
    <path d="M107.768 132.288H117.752V146.424H107.768V132.288ZM115.832 133.872H109.736V144.816H115.832V133.872ZM122.312 130.152H124.304V151.896H122.312V130.152ZM144.438 130.152H146.406V151.896H144.438V130.152ZM129.87 144.984H131.67C132.902 144.984 134.086 144.968 135.222 144.936C136.374 144.888 137.534 144.808 138.702 144.696C139.886 144.584 141.118 144.424 142.398 144.216L142.59 145.848C140.638 146.168 138.798 146.384 137.07 146.496C135.342 146.592 133.542 146.64 131.67 146.64H129.87V144.984ZM129.822 132.168H139.854V139.92H131.886V145.608H129.87V138.312H137.838V133.8H129.822V132.168ZM150.7 147.456H170.38V149.112H150.7V147.456ZM159.508 142.248H161.476V147.936H159.508V142.248ZM153.004 131.688H154.996V135.552H166.036V131.688H168.004V142.8H153.004V131.688ZM154.996 137.184V141.168H166.036V137.184H154.996ZM188.594 130.152H190.586V151.872H188.594V130.152ZM182.234 132.504H184.202C184.202 134.072 184.01 135.584 183.626 137.04C183.258 138.496 182.674 139.88 181.874 141.192C181.074 142.488 180.034 143.696 178.754 144.816C177.474 145.936 175.922 146.936 174.098 147.816L173.042 146.208C175.138 145.2 176.866 144.024 178.226 142.68C179.586 141.336 180.594 139.84 181.25 138.192C181.906 136.528 182.234 134.736 182.234 132.816V132.504ZM174.05 132.504H183.074V134.112H174.05V132.504ZM131.094 171.896H132.966V174.584H136.758V171.896H138.606V180.584H131.094V171.896ZM132.966 176.096V179.024H136.758V176.096H132.966ZM142.806 171.752H144.366V173.576C144.366 174.552 144.198 175.512 143.862 176.456C143.526 177.384 143.022 178.224 142.35 178.976C141.694 179.728 140.87 180.32 139.878 180.752L138.87 179.24C139.734 178.872 140.462 178.384 141.054 177.776C141.646 177.168 142.086 176.496 142.374 175.76C142.662 175.024 142.806 174.296 142.806 173.576V171.752ZM143.238 171.752H144.774V173.576C144.774 174.344 144.918 175.104 145.206 175.856C145.51 176.592 145.958 177.256 146.55 177.848C147.142 178.44 147.87 178.904 148.734 179.24L147.702 180.752C146.694 180.336 145.862 179.76 145.206 179.024C144.55 178.288 144.054 177.448 143.718 176.504C143.398 175.56 143.238 174.584 143.238 173.576V171.752ZM139.518 164.24H145.35V165.896H139.518V164.24ZM134.55 160.112C135.622 160.112 136.574 160.328 137.406 160.76C138.254 161.176 138.918 161.76 139.398 162.512C139.878 163.248 140.118 164.112 140.118 165.104C140.118 166.08 139.878 166.952 139.398 167.72C138.918 168.472 138.254 169.064 137.406 169.496C136.574 169.912 135.622 170.12 134.55 170.12C133.462 170.12 132.494 169.912 131.646 169.496C130.814 169.064 130.158 168.472 129.678 167.72C129.198 166.952 128.958 166.08 128.958 165.104C128.958 164.112 129.198 163.248 129.678 162.512C130.158 161.76 130.814 161.176 131.646 160.76C132.494 160.328 133.462 160.112 134.55 160.112ZM134.55 161.768C133.83 161.768 133.19 161.912 132.63 162.2C132.086 162.472 131.654 162.864 131.334 163.376C131.014 163.872 130.854 164.448 130.854 165.104C130.854 165.76 131.014 166.344 131.334 166.856C131.654 167.352 132.086 167.744 132.63 168.032C133.19 168.32 133.83 168.464 134.55 168.464C135.254 168.464 135.878 168.32 136.422 168.032C136.982 167.744 137.422 167.352 137.742 166.856C138.062 166.344 138.222 165.76 138.222 165.104C138.222 164.448 138.062 163.872 137.742 163.376C137.422 162.864 136.982 162.472 136.422 162.2C135.878 161.912 135.254 161.768 134.55 161.768ZM144.486 159.152H146.478V170.648H144.486V159.152ZM160.492 159.632C162.06 159.632 163.412 159.8 164.548 160.136C165.7 160.456 166.58 160.92 167.188 161.528C167.812 162.136 168.124 162.88 168.124 163.76C168.124 164.608 167.812 165.344 167.188 165.968C166.58 166.576 165.7 167.04 164.548 167.36C163.412 167.68 162.06 167.84 160.492 167.84C158.94 167.84 157.588 167.68 156.436 167.36C155.3 167.04 154.42 166.576 153.796 165.968C153.172 165.344 152.86 164.608 152.86 163.76C152.86 162.88 153.172 162.136 153.796 161.528C154.42 160.92 155.3 160.456 156.436 160.136C157.588 159.8 158.94 159.632 160.492 159.632ZM160.492 161.216C159.356 161.216 158.364 161.32 157.516 161.528C156.684 161.72 156.036 162.008 155.572 162.392C155.124 162.76 154.9 163.216 154.9 163.76C154.9 164.272 155.124 164.72 155.572 165.104C156.036 165.472 156.684 165.76 157.516 165.968C158.364 166.16 159.356 166.256 160.492 166.256C161.644 166.256 162.636 166.16 163.468 165.968C164.316 165.76 164.964 165.472 165.412 165.104C165.86 164.72 166.084 164.272 166.084 163.76C166.084 163.216 165.86 162.76 165.412 162.392C164.964 162.008 164.316 161.72 163.468 161.528C162.636 161.32 161.644 161.216 160.492 161.216ZM153.1 173.432H167.908V180.584H153.1V173.432ZM165.964 175.04H155.044V178.952H165.964V175.04ZM150.7 169.688H170.308V171.32H150.7V169.688Z" fill="black"/>
</svg>
